<?xml version="1.0" encoding="UTF-8"?>
<svg xmlns="http://www.w3.org/2000/svg" version="1.1" viewBox="0 0 160 160">
  <!-- Generator: Adobe Illustrator 29.5.1, SVG Export Plug-In . SVG Version: 2.1.0 Build 141)  -->
  <defs>
    <style>
      .st0 {
        fill: #0984e3;
      }
    </style>
  </defs>
  <g id="Layer_1">
    <g>
      <path class="st0" d="M72.15,24.85c.75.52,1.2,1.42,1.8,1.95.75.75.9-.52,1.2-.75l.53-.38,1.12-1.27,1.8-1.88c0-.25-.1-.5-.3-.75-.45-.6-1.65-1.73-2.25-2.25-.3-.3-.58-.38-.83-.23l-.3.38-3.53,4.43c0,.52.45.52.75.75Z"/>
      <path class="st0" d="M88.95,69.25c.07.45.45,1.65.75,1.95l.38.22c1.95-.2,3.9-.52,5.85-.97.45-.15.7-.4.75-.75-.04-.82-.22-1.63-.53-2.4l-.22-.07-6.83,1.35c-.15.2-.2.42-.15.67Z"/>
      <path class="st0" d="M59.4,25.98c.25-.2.38-.45.38-.75.6-1.65.9-2.7,2.62-3.6,2.48-1.27,4.73-.67,6.9.98.3,0,.55-.1.75-.3l3.53-4.95c0-.3-.45-.68-.68-.83-3.87-3.17-9.02-4.31-13.88-3.08l-1.27.53c-1.28.75-3.75,4.5-4.35,5.85-.49,1.25-.82,2.56-.97,3.9,0,.45-.22,1.42-.15,1.8,0,.2.1.38.3.52l6.82-.07Z"/>
      <path class="st0" d="M82.65,31.68h.08l-.9.3c-.38.15-.9.67-1.28.9l-1.65,1.42.08.3.98,2.25c.05.25.2.4.45.45l.6-.15.67-.53.53-.08c1.35-.45,2.62-1.35,3.9-1.8.6-.3.3-1.05.15-1.5l-1.35-2.25c-.2-.3-.5-.45-.9-.45-.6.15-.9.9-1.35,1.12Z"/>
      <path class="st0" d="M76.95,27.7h-.08l-.98,1.2c-.3.52.23.75.53,1.12s.75,2.1,1.2,2.25l.6-.15c.3-.15.15-.6.38-.75l1.28-.67,1.5-1.12c.75-.38,2.1-.97,1.65-1.8-.45-.83-1.12-2.17-1.65-2.78-.25-.3-.55-.35-.9-.15l-1.12.75-.08.45-.82.3c-.58.35-1.09.81-1.5,1.35Z"/>
      <path class="st0" d="M87.07,67.45h.07l-.3-.3-.52-1.65-.38-.38-.08.08-.6.9c-.4.15-.67.4-.82.75.3.75.52,2.78,1.65,1.95,0-.15.98-1.2.98-1.35Z"/>
      <path class="st0" d="M85.65,37.38c-1.05.23-3.38,1.35-4.35,1.88-.4.15-.53.4-.38.75.22.53.75,2.25,1.2,2.62.3.2.65.28,1.05.23l1.95-.75c.9-.3,2.25-.38,3-.68l.75-.38c-.45-.52-.23-1.12-.38-1.72-.08-.53-.3-1.72-.53-2.25-.35-.5-.83-.55-1.42-.15l-.45.45h-.45Z"/>
      <path class="st0" d="M87.15,63.18v.08c.45,1.1.85,2.23,1.2,3.38.05.2.28.3.67.3,1.8-.6,3.98-.75,5.78-1.42.5-.1.62-.35.38-.75l-1.28-3.97-6.75,2.1c-.1,0-.1.1,0,.3Z"/>
      <path class="st0" d="M82.65,45.55v-.07c-.45.22,0,.67.15.9l.08,1.5.3,1.5c.22.23.53,0,.75.08l6.15.6c.6-.1.85-.4.75-.9,0-.75-.75-3.9-1.05-4.5l-.38-.15-1.8.15c-1.7.2-3.35.5-4.95.9Z"/>
      <path class="st0" d="M78.9,67.75l-.22-.6c-.15-.45-.3-1.73-.75-1.8h-.53c-.65,0-1.27.1-1.87.3l-.52.38-2.25.52-.45.15.22.9-.15.98.3,1.5c0,.52-.15,1.12.3,1.5l6.3-2.25-.38-1.58Z"/>
      <path class="st0" d="M81.22,75.85c-.38-.15-.45.15-.75.3l-5.4,2.25v.67l1.2,2.62s.15.3.3.3l5.62-4.42c-.23-.38-.6-1.5-.98-1.73Z"/>
      <path class="st0" d="M96.82,77.58c-1.5-.38-3.38-.3-4.95-.53-.35-.2-.73-.32-1.12-.38-.83.23-.75.9-1.12,1.5-.75.98-3.23,1.88-4.5,1.73-.75-.08-1.12-1.12-2.25-.67l-3.75,3.3c-.3.22-1.2.83-1.2,1.12v.15l1.05,1.12c.53.38,3.98,1.5,4.73,1.5,1.35.3,4.2,0,5.47-.45,1.05-.3,2.62-.98,3.53-1.5,2.4-1.39,4.09-3.74,4.65-6.45-.05-.25-.22-.4-.52-.45Z"/>
      <path class="st0" d="M55.57,32.8l2.25-.52c.52-.15,1.35-.08,1.88-.23.67-.22.3-.6.15-1.27l-.22-1.42v-.98c0-.3-.75-.22-.98-.22-.97,0-4.8-.08-5.55.15l-.52.38v.23c.3,1.12.22,2.47.45,3.6l.38.75c.23,0,1.12-.38,1.35-.52l.83.07Z"/>
      <path class="st0" d="M80.62,73.08v.08l-.38-1.2-.38-.38c-.3-.23-1.28.3-1.65.38l-3,.75c-.52.22-1.88.75-1.88,1.35.3.68.3,1.65.6,2.25.1.3.27.4.52.3,1.2-.38,2.7-1.12,3.9-1.65.83-.3,2.47-.53,2.25-1.88Z"/>
      <path class="st0" d="M97.65,73.3c-.07-.52-.07-1.05-.75-.97l-6.07.75c-.3.15-.5.35-.6.6l-.08.08c.38.67.15,1.65,1.2,1.65l1.05-.15c1.73.23,3.3.75,4.95.75.4-.85.5-1.75.3-2.7Z"/>
      <path class="st0" d="M58.87,39.55c.67-.22,2.1-.82,2.55-1.2.75-.53.08-1.28-.08-1.88l-.6-1.73-.15-.22c-.15-.08-1.72.3-2.1.45-.85.2-1.73.35-2.62.45-.45,0-1.58,0-1.88.38l-.15.68c.08.75.6,3,.98,3.6.38.67,1.27,0,1.8-.08l2.25-.45Z"/>
      <path class="st0" d="M64.8,43.83v.08c.15-.3-.53-.9-.75-1.28l-1.2-2.25-6.67,2.55,2.25,4.65c1.8-.75,3.47-1.65,5.03-2.7.22-.22,1.27-.83,1.35-1.05Z"/>
      <path class="st0" d="M68.7,47.95c-.53-.53-1.58-1.72-2.18-2.17-.2-.15-.45-.12-.75.07-1.8.98-3.52,2.48-5.4,3.45-.53.3.08.75.3,1.12s2.55,3.08,2.78,3.08l.22-.15,5.33-4.88-.3-.52Z"/>
      <polygon class="st0" points="73.5 52.45 70.65 49.98 65.55 55.53 69.15 58.98 73.65 52.83 73.5 52.45"/>
      <path class="st0" d="M82.95,69.78c.67-.15.38-.23.22-.53-.22-.75-.15-1.72-.75-2.1l-1.58-.6-.38.15c-.75.52,0,2.02.53,2.55.38.38,1.42.75,1.95.53Z"/>
      <path class="st0" d="M64.57,23.13l.75,1.8c1.5-.3,2.92.38,4.35.6l.15-.15v-.3c-.23-.3-.9-.75-1.2-.9l.08.08c-1.05-.95-2.3-1.5-3.75-1.65-.25,0-.38.17-.38.52Z"/>
      <path class="st0" d="M79.65,49.15c1.5-1.65,2-3.65,1.5-6-1.12-4.8-7.35-5.92-9.97-9.3-2.03-2.55-1.72-4.95-.67-7.65l.38-.9-.15-.08c-.15.08-.97,1.35-1.05,1.58-1.95,3.45-2.55,9,1.05,11.85,1.05.9,2.7,1.27,3.3,2.77.83,1.95-.6,3.23-2.32,2.03-1.73-1.2-1.5-3.75-3.45-4.95-.6-.4-1.2-.45-1.8-.15l.52.38c1.42,1.12.9,2.93.9,4.43.15,6.45,7.5,10.65,11.77,6Z"/>
      <path class="st0" d="M62.77,24.03l-.45.15c-.53.45-.9,1.73-.98,2.25,0,.83,0,2.55.23,3.23.15.3.32.38.52.22.45-.22.67-1.88.83-2.4l.75-1.2c.3-.35.33-.75.08-1.2v-.08l-.98-.97Z"/>
      <path class="st0" d="M88.87,76.53l-.15-1.5c0-.3-.08-.62-.22-.98h-.23c-.3.23-.97,1.5-.97,1.8,0,.38.38,1.5.53,1.65.52.53.97-.6,1.05-.97Z"/>
      <path class="st0" d="M85.35,78.25c.45,0,.38-.52.23-.83l-.53-.97c-.1-.25-.28-.4-.53-.45-.3-.15-.97-.3-1.2-.15-.53.45.22,1.35.52,1.65.23.23,1.2.9,1.5.75Z"/>
      <path class="st0" d="M84.22,73.75h-.08c.25,0,.35-.12.3-.38,0-.22-.45-.97-.6-1.12l-1.5-.75-.38.15c-.52.3-.22,1.27.08,1.65s1.65.6,2.17.45Z"/>
      <path class="st0" d="M86.47,73.08v-.08c.38.08,1.5-.97,1.58-1.27l-.45-1.28c-.2-.1-.4-.08-.6.08-.42.3-.78.68-1.05,1.12,0,.3.22,1.35.52,1.42Z"/>
    </g>
  </g>
  <g id="Text">
    <path class="st0" d="M3.52,96.2v-2.4c.03-.5.3-.77.8-.8h14.02c.5.03.77.3.8.8v2.4c-.03.5-.3.77-.8.8H4.32c-.5-.03-.77-.3-.8-.8"/>
    <path class="st0" d="M3.52,107.02v-2.25c.03-.5.3-.77.8-.8h12.57c.5.03.77.3.8.8v2.25c-.03.53-.3.82-.8.85H4.37c-.53-.07-.82-.35-.85-.85"/>
    <path class="st0" d="M117.59,95.05c-1,0-1.74-.2-2.2-.6-.47-.4-.72-.97-.75-1.7,0-.8.27-1.4.8-1.8.5-.4,1.22-.6,2.15-.6,1,0,1.74.2,2.2.6.7.6.75,1,.75,1.75s-.25,1.35-.75,1.75-1.25.6-2.2.6"/>
    <g>
      <path class="st0" d="M5.27,93h-3.1c-.5.03-.77.3-.8.8v22.83c.03.5.3.77.8.8h3.1c.5-.03.77-.3.8-.8v-22.83c-.03-.5-.3-.77-.8-.8Z"/>
      <path class="st0" d="M39.02,98.05h-3.05c-.45,0-.85.4-.85.8v8.01c-.05,1.05-.05,1.55-.35,2.85-.23.87-.57,1.64-1,2.3-.4.67-.87,1.17-1.4,1.5-.5.37-1.14.55-1.9.55-1.24,0-2.15-.5-2.75-1.5-.57-.9-.85-2.35-.85-4.36v-9.31c-.03-.5-.32-.78-.85-.85h-3.05c-.5.07-.77.33-.8.8v9.96c0,3.07.57,5.37,1.7,6.91,1.1,1.54,2.77,2.3,5.01,2.3v-.05c1.17.03,2.17-.2,3-.7.83-.43,1.55-1.15,2.15-2.15.57-1,1.03-2.25,1.4-3.76h.6l-.05,5.26c.03.5.3.78.8.85h2.25c.5-.03.77-.32.8-.85l.05-7.16v-10.57c-.03-.5-.32-.78-.85-.85Z"/>
      <path class="st0" d="M62.26,107.87c0-1.47-.17-2.79-.5-3.96-.3-1.27-.87-2.46-1.65-3.51-.73-.93-1.67-1.64-2.8-2.1-1.1-.45-1.6-.7-3.81-.7-1.5,0-2.84.27-4.01.8-1.2.5-2.2,1.22-3,2.15-.8.97-1.42,2.09-1.85,3.35-.4,1.3-.6,1.95-.6,4.26,0,1.54.2,2.92.6,4.16.4,1.14,1.03,2.14,1.9,3,.87.87,1.9,1.54,3.1,2s2.6.7,4.21.7h0c1.24.03,2.35-.1,3.35-.4,1-.3,1.84-.7,2.5-1.2.7-.57,1.27-1.2,1.7-1.9.3-.47.55-.98.75-1.55.1-.53-.12-.9-.65-1.1l-2.5-.5c-.43-.07-.73.1-.9.5l-.25.5c-.47.86-1.23,1.52-2.15,1.85-.5.17-1.12.25-1.85.25-1.48.1-2.93-.47-3.96-1.55-.83-.97-1.27-2.38-1.36-4.16l12.88-.1c.5-.03.78-.3.85-.8ZM50.89,102.16c.73-.53,1.6-.8,2.6-.8,1.78-.1,3.41.98,4.01,2.65.2.53.3,1.19.34,1.96l-9.16.09c.11-.6.26-1.15.46-1.64.4-1,.98-1.75,1.75-2.25Z"/>
      <path class="st0" d="M70.22,91.14h-3c-.5,0-.77.27-.8.8v24.69c.03.5.3.77.8.8h3c.5-.03.78-.3.85-.8v-24.69c-.03-.5-.32-.77-.85-.8Z"/>
      <path class="st0" d="M91.7,98.9c-1.24-.87-2.74-1.3-4.51-1.3-1.06-.02-2.11.22-3.05.7-.87.43-1.57,1.08-2.1,1.95s-.95,1.92-1.25,3.15l-.55-.05v-4.41c-.03-.5-.3-.78-.8-.85h-2.3c-.5.03-.78.3-.85.8v24.34c.05.24.26.41.5.4h3.71c.3,0,.45-.13.45-.4v-4.96l-.1-1.95c-.07-1.4-.29-2.8-.65-4.16h.7c.37,1.1.82,2.1,1.35,3,.53.9,1.24,1.6,2.1,2.1s1.94.75,3.2.75c1.56.05,3.1-.43,4.36-1.35,1.13-.9,2-2.1,2.6-3.61.55-1.5.8-2.05.85-5.16.03-2.07-.28-3.86-.95-5.36-.6-1.54-1.5-2.75-2.7-3.66ZM89.95,111.17c-.33.97-.83,1.7-1.5,2.2-.67.57-1.49.85-2.45.85v-.05c-.67-.03-1.27-.17-1.8-.4-.53-.23-1-.58-1.4-1.05-1.12-1.24-1.76-2.84-1.8-4.51v-.7c0-.63.1-1.3.3-2,.2-.7.52-1.34.95-1.9.39-.6.9-1.11,1.5-1.5.63-.37,1.35-.55,2.15-.55.97.03,1.79.3,2.45.8.74.55,1.31,1.3,1.65,2.15.35.95.5,1.45.5,3.35.03,1.27-.15,2.37-.55,3.3Z"/>
      <path class="st0" d="M111.23,97.75l-1-.1c-1.17,0-2.2.27-3.1.8-.8.57-1.47,1.35-2,2.35-.5,1.07-.83,2.4-1,4.01h-.65l.1-5.86c-.03-.5-.32-.78-.85-.85h-2.3c-.5.03-.78.3-.85.8v17.78c.03.5.3.78.8.85l3.1.05c.5-.03.77-.32.8-.85v-8.36c.23-1.17.55-2.22.95-3.15.47-.9,1.05-1.6,1.75-2.1.67-.5,1.5-.75,2.5-.75l1.1.15.25.05c.5.1,1-.3,1-.8l.15-3.2c-.03-.47-.28-.73-.75-.8Z"/>
      <path class="st0" d="M119.04,98.1h-3c-.5.03-.77.3-.8.8v17.83c0,.5.27.77.8.8h3.05c.5-.03.77-.3.8-.8v-17.83c-.03-.5-.32-.77-.85-.8Z"/>
      <path class="st0" d="M136.41,97.65c-1.17,0-2.2.22-3.1.65-.9.5-1.35.65-2.25,2.15-.6.97-1.05,2.17-1.35,3.61h-.7l.1-5.11c-.03-.5-.3-.78-.8-.85h-2.3c-.5.03-.78.3-.85.8v17.78c.03.5.3.78.8.85l3.05.05c.5-.03.78-.32.85-.85v-8.01c.07-1.24.27-2.4.6-3.51.4-1.07.95-1.94,1.65-2.6.7-.67,1.59-1,2.65-1,1.24,0,2.17.5,2.8,1.5.63.97.95,2.5.95,4.61v8.96c.03.5.3.78.8.85h3.1c.45,0,.85-.4.85-.8v-9.51c0-3.27-.58-5.67-1.75-7.21-1.14-1.57-2.84-2.35-5.11-2.35Z"/>
      <path class="st0" d="M157.65,113.38l-1.6.2c-.87,0-1.5-.2-1.9-.6-.43-.4-.65-1.07-.65-2v-8.16c.03-.5.3-.77.8-.8h3.35c.5-.03.78-.3.85-.8v-2.25c-.03-.5-.32-.77-.85-.8h-3.4c-.5-.03-.77-.3-.8-.8v-2.65c-.03-.5-.3-.78-.8-.85h-1.25c-.5.03-.77.27-.8.7l-.35,2.1c-.03.6-.25,1-.65,1.2-.33.23-.83.35-1.5.35h-1.15c-.47.03-.75.3-.85.8v2.05c.03.5.3.78.8.85h1.2c.5.03.77.3.8.8v8.41c0,2.34.5,4.06,1.5,5.16,1,1.1,2.5,1.65,4.51,1.65l.05.05c1.07-.01,2.13-.18,3.15-.5.37-.13.55-.38.55-.75v-2.6c0-.5-.5-.9-1-.75Z"/>
    </g>
  </g>
</svg>