<svg xmlns="http://www.w3.org/2000/svg" id="Layer_1" viewBox="0 0 400 100">
  <defs>
    <style>
      .st0{fill:#0984e3}
    </style>
  </defs>
  <path d="M11 70.3V13q.1-1 1-1h9.4q1 0 1 1v57.3q0 1-1 1H12a1 1 0 0 1-1-1m5.2-49.6V13q.1-1 1.1-1h35.9q1 0 1 1v7.7q0 .9-1 1H17.3a1 1 0 0 1-1-1m0 26.3v-7.4q.1-1 1.1-1h32.4q.9 0 1 1V47q-.1 1-1 1.1H17.3a1 1 0 0 1-1-1M77.7 72.6q-8 0-12.2-5.6a28 28 0 0 1-4-16.8V25.3q0-1 1-1h9.3q1 0 1 1V49q0 7.2 2.2 10.6 2 3.5 6.7 3.5a8 8 0 0 0 4.6-1.3 12 12 0 0 0 3.5-3.6 19 19 0 0 0 2.3-5.6q.7-3 1-7V25.4q0-1 1-1h9.3q1 0 1.1 1v44.9q-.1 1-1.2 1.1h-7.2a1 1 0 0 1-1-1l.1-13q0-.7-.8-.7-.7 0-.9.6-1.2 5-3.2 8.5a14 14 0 0 1-5.2 5.2q-3 1.7-7.3 1.7ZM138.4 72.6a29 29 0 0 1-10.2-1.7q-4.5-1.6-7.5-4.7t-4.6-7.5q-1.5-4.5-1.5-10c0-5.6.5-7.2 1.5-10.3q1.5-4.6 4.5-8.2 3-3.4 7.2-5.3t9.7-1.8c5.4 0 6.6.5 9.3 1.7q4.2 1.6 6.8 5 2.8 3.4 4 8.5 1.4 4.6 1.2 10.6-.1 1-1 1l-34.8.2a1 1 0 0 1-1-1v-4.5q0-1 1-1l26.3-.2a1 1 0 0 1 .7 1.8 1 1 0 0 1-1.8-.8q0-3.5-.9-5.9a10 10 0 0 0-3.9-4.8q-2.5-1.5-5.8-1.6-3.6 0-6.3 2a13 13 0 0 0-4.3 5.5 23 23 0 0 0-1.5 8.9q0 7.8 3.4 11.7a12 12 0 0 0 9.5 3.9q2.7 0 4.6-.7a9 9 0 0 0 5.1-4.5l1-2a1 1 0 0 1 1.2-.7l7.2 1.6q1.7.5 1.5 1.5-.9 2.7-2.1 4.8a16 16 0 0 1-4.2 4.6 18 18 0 0 1-6 3q-3.5 1-8.3 1ZM169 70.3V8.5q0-1 1-1h9.1q1 0 1.1 1v61.8q-.1 1-1 1H170a1 1 0 0 1-1-1M194 86.3a1 1 0 0 1-1-1l-.1-37.2V25.3q.1-1 1.1-1h7.4q1 0 1.1 1v11q0 .6.6.7t1-.6q.9-4 2.7-6.9 2-3 5.2-4.7t7.4-1.7q6.5 0 10.8 3.1 4.5 3.1 6.7 8.8t2.3 13c0 7.3-.7 8.9-2.1 12.6a19 19 0 0 1-6.3 8.8 17 17 0 0 1-10.5 3.2q-4.8 0-7.9-1.8a15 15 0 0 1-5.1-5q-1.8-3-3-6.6a1 1 0 0 0-1-.8h-.9a49 49 0 0 1 1.7 10.1l.2 4.7v12q0 1-1 1zm22.5-23a9 9 0 0 0 5.9-2q2.4-1.9 3.7-5.3 1.5-3.5 1.4-8a19 19 0 0 0-1.4-8.2q-1.4-3.3-3.8-5.3a10 10 0 0 0-6-1.9q-3 0-5.3 1.4t-3.7 3.6a17 17 0 0 0-3 9.5v1.7a17 17 0 0 0 4.4 11q1.5 1.5 3.4 2.6 2 1 4.4 1ZM250.5 71.3a1 1 0 0 1-1-1v-45q.1-1 1-1h7.6q1 0 1 1l-.2 14.3q.1.8.8.9t.9-.7q.8-5.4 2.4-9a13 13 0 0 1 4.8-5.7q3.2-2 7.5-2l3.4.4q.8.1.9 1l-.4 9.8a1 1 0 0 1-1.4 1 14 14 0 0 0-4.3-.7q-3.6 0-6.1 1.8a13 13 0 0 0-4.2 5.1 28 28 0 0 0-2.4 8v20.8q0 1-1 1zM293.2 16.9q-3.5 0-5.3-1.5a5 5 0 0 1-1.8-4.2q0-3 1.8-4.4t5.3-1.5q3.6 0 5.4 1.5t1.8 4.3c0 2.8-.6 3.3-1.8 4.3q-1.9 1.5-5.4 1.5m-5.8 53.4v-45q.1-1 1-1h9.3q1 0 1 1v45q0 1-1 1h-9.2a1 1 0 0 1-1-1M312.6 71.3a1 1 0 0 1-1-1v-45q.1-1 1.1-1h7.4q1 .1 1 1l-.3 12.5q.1.8.8.9h.3q.6 0 .8-.7a28 28 0 0 1 3.2-8q2.1-3.6 5.4-5.2t7.6-1.7q8.1 0 12.3 5.7t4.3 17.5v24q-.1 1-1.1 1H345a1 1 0 0 1-1-1V47.5q0-7.6-2.4-11.2a8 8 0 0 0-6.8-3.6q-3.8 0-6.4 2.4t-4 6.3a25 25 0 0 0-1.5 8.5v20.4q-.1 1-1.1 1zM383.8 72.4q-7.4 0-11-4t-3.6-12.6V34.4q-.1-1-1-1h-4.8a1 1 0 0 1-1-1.2l.1-6.8q.1-1 1-1h3.7a8 8 0 0 0 3.8-1q1.2-.6 1.5-2.8l.9-5.9q.1-.9 1-1h4.8q1 .2 1 1.2v8.3q.1 1 1.1 1h10.1q1 .1 1.1 1.1v7.3q-.1 1-1 1h-10.2a1 1 0 0 0-1 1.2v20.7q0 3.3 1.5 4.8c1.5 1.5 2.6 1.5 4.7 1.5a16 16 0 0 0 4.9-.9 1 1 0 0 1 1.5 1v8.2q0 .8-.8 1a27 27 0 0 1-8.3 1.3Z" class="st0"/>
</svg>
