<?xml version="1.0" encoding="UTF-8"?>
<svg id="Layer_2" xmlns="http://www.w3.org/2000/svg" version="1.1" viewBox="0 0 256 256">
  <!-- Generator: Adobe Illustrator 29.5.1, SVG Export Plug-In . SVG Version: 2.1.0 Build 141)  -->
  <defs>
    <style>
      .st0 {
        fill: #231f20;
      }

      .st1 {
        fill: none;
        stroke: #231f20;
        stroke-miterlimit: 10;
        stroke-width: 16.59px;
      }
    </style>
  </defs>
  <path class="st1" d="M32.79,130.01c0-4.65.3-9.24.87-13.74,6.74-52.45,51.56-92.98,105.84-92.98,58.94,0,106.71,47.78,106.71,106.71s-47.78,106.71-106.71,106.71c-41.66,0-77.75-23.88-95.33-58.7"/>
  <polygon class="st0" points="30.35 152.84 19.59 122.77 1.18 96.69 32.59 102.4 64.39 99.5 43.74 123.85 30.35 152.84"/>
  <path d="M212.94,128.01c-.22-.49-5.43-12.05-17.02-23.64-15.44-15.44-34.95-23.61-56.42-23.61s-40.98,8.16-56.42,23.61c-11.59,11.59-16.83,23.18-17.02,23.64-.57,1.27-.57,2.73,0,4,.22.49,5.43,12.05,17.02,23.64,15.44,15.44,34.95,23.6,56.42,23.6s40.98-8.16,56.42-23.6c11.59-11.59,16.81-23.15,17.02-23.64.57-1.27.57-2.73,0-4ZM139.5,169.4c-18.95,0-35.5-6.89-49.2-20.47-5.62-5.59-10.41-11.97-14.2-18.93,3.79-6.96,8.58-13.34,14.2-18.93,13.7-13.58,30.26-20.47,49.2-20.47s35.5,6.89,49.2,20.47c5.63,5.59,10.43,11.96,14.23,18.93-4.44,8.29-23.77,39.4-63.43,39.4ZM139.5,100.46c-16.32,0-29.55,13.23-29.55,29.55s13.23,29.55,29.55,29.55,29.55-13.23,29.55-29.55c-.02-16.31-13.24-29.53-29.55-29.55ZM139.5,149.71c-10.88,0-19.7-8.82-19.7-19.7s8.82-19.7,19.7-19.7,19.7,8.82,19.7,19.7-8.82,19.7-19.7,19.7Z"/>
</svg>